<?xml version="1.0" encoding="UTF-8"?>
<!DOCTYPE svg PUBLIC "-//W3C//DTD SVG 1.1//EN" "http://www.w3.org/Graphics/SVG/1.1/DTD/svg11.dtd">
<!-- Creator: CorelDRAW -->
<svg xmlns="http://www.w3.org/2000/svg" xml:space="preserve" width="139.368mm" height="48.6669mm" version="1.1" style="shape-rendering:geometricPrecision; text-rendering:geometricPrecision; image-rendering:optimizeQuality; fill-rule:evenodd; clip-rule:evenodd"
viewBox="0 0 17949.12 6267.79"
 xmlns:xlink="http://www.w3.org/1999/xlink"
 xmlns:xodm="http://www.corel.com/coreldraw/odm/2003">
 <defs>
  <style type="text/css">
   <![CDATA[
    .fil4 {fill:#FFED00}
    .fil3 {fill:#EF7F1A}
    .fil2 {fill:#E31E24}
    .fil5 {fill:#982D80}
    .fil1 {fill:#393185}
    .fil0 {fill:#393185;fill-rule:nonzero}
   ]]>
  </style>
 </defs>
 <g id="Слой_x0020_1">
  <metadata id="CorelCorpID_0Corel-Layer"/>
  <g id="_2236015515440">
   <path class="fil0" d="M6831.53 4383.3c-4.73,-335.28 118.06,-622.75 368.34,-862.4 250.29,-239.65 548.97,-355.94 896.05,-348.85 233.74,0 443.89,54.89 630.42,164.68 186.51,109.79 332.91,263.85 439.16,462.2l-463.95 315.21c-151.12,-255.02 -354.17,-382.52 -609.19,-382.52 -186.53,0 -339.4,60.22 -458.65,180.64 -119.23,120.41 -178.85,278.61 -178.85,474.59 0,191.24 59.04,348.25 177.09,471.03 122.78,118.06 276.25,177.09 460.41,177.09 255.02,0 458.07,-127.49 609.19,-382.5l463.95 315.21c-106.25,198.34 -252.65,352.41 -439.16,462.2 -186.54,109.79 -397.86,164.68 -633.98,164.68 -344.72,4.73 -642.81,-112.16 -894.28,-350.62 -251.45,-238.49 -373.64,-525.36 -366.56,-860.65zm2681.08 1168.77l0 -2337.52 814.58 0c363.61,-4.71 668.2,101.54 913.76,318.75 245.55,217.23 365.97,498.18 361.25,842.93 4.71,342.36 -116.3,625.09 -363.03,848.23 -246.74,223.12 -550.73,332.32 -911.98,327.6l-814.58 0zm609.17 -548.97l201.86 0c193.61,0 351.22,-56.67 472.83,-170 121.6,-113.33 182.38,-265.63 182.38,-456.87 0,-193.61 -59.62,-343.56 -178.85,-449.81 -119.22,-106.24 -278.02,-159.36 -476.35,-159.36l-201.86 0 0 1236.04zm4048.14 548.97l-722.51 0 -888.96 -1165.21 0 1165.21 -609.16 0 0 -2337.52 609.16 0 0 1058.96 772.09 -1058.96 708.33 0 -803.96 1112.08 935 1225.43zm240.85 0l0 -2337.52 609.17 0 0 1788.55 966.89 0 0 548.97 -1576.06 0zm3538.14 -786.25c0,238.47 -89.73,436.21 -269.17,593.22 -179.46,157.02 -401.4,235.53 -665.83,235.53 -205.43,0 -387.82,-49.58 -547.21,-148.75 -159.36,-99.17 -279.19,-236.11 -359.48,-410.84l421.46 -297.5c70.85,106.25 141.09,182.4 210.73,228.45 69.66,46.03 152.9,69.06 249.7,69.06 101.52,0 183,-23.03 244.38,-69.06 61.38,-46.04 92.08,-110.39 92.08,-193.03 0,-158.19 -134.59,-237.29 -403.76,-237.29l-556.05 0 0 -1321.05 1448.55 0 0 548.95 -871.25 0 0 272.71c82.63,-16.51 157.01,-24.79 223.13,-24.79 203.06,-4.71 385.45,64.94 547.19,208.96 161.73,144.04 240.26,325.84 235.53,545.44z"/>
   <path class="fil1" d="M3632.6 4952.01c424.22,338.43 1030.37,971.7 1587.4,1111.53 422.46,106.02 626.69,-85.34 453.84,-506.22 -239.16,-582.31 -1191.91,-1233.16 -1122.28,-1773.33 186.95,-217 751.06,-427.34 1063.21,-577.79 481.49,-232.12 1405.52,-867.42 327.8,-975.19 -508.46,-50.83 -1073.06,166.98 -1482.14,210.11 -18.69,134.65 -44.32,261.03 -75.78,380.5 -115.83,439.97 -413.92,685.37 -699.66,938.33l58.51 0c68.36,0 124.29,55.95 124.29,124.32 0,68.37 -55.93,124.32 -124.29,124.32l-125.39 0 -207.76 0c-60.54,0 -110.09,49.52 -110.09,110.09 0,60.54 49.55,110.09 110.09,110.09l33.88 0 565.5 0c68.36,0 124.31,55.93 124.31,124.32 0,68.37 -55.93,124.31 -124.31,124.31l-787.37 0 -58.08 0c-62.15,0 -112.97,50.85 -112.97,112.99l0 0.01c0,61.57 49.93,112.06 111.31,112.96l0 0.01 1.66 0 903.78 0 101.8 0c68.39,0 124.33,55.95 124.33,124.32 0,68.37 -55.95,124.32 -124.33,124.32l-537.25 0z"/>
   <path class="fil1" d="M251.22 2836.72c402.06,386.63 1150.73,615.27 1396.37,928.19 42.91,376.25 -795.21,1221.25 -883.78,1978.75 -48.28,412.86 69.33,660.69 507.92,444.04 447.02,-220.81 1279.86,-850.22 1460.74,-1052.97 -3.1,-269.74 36.16,-511.66 104.6,-734.42 105.31,-342.72 366.69,-587.69 631.18,-829.68l-63.39 0c-68.37,0 -124.32,-55.93 -124.32,-124.31 0,-68.37 55.96,-124.32 124.32,-124.32l133.01 0 208.64 0c60.56,0 110.09,-49.53 110.09,-110.09l0 -0.01c0,-60.54 -49.53,-110.08 -110.09,-110.08l-13.79 0 -594.09 0c-68.4,0 -124.33,-55.95 -124.33,-124.31 0,-68.39 55.96,-124.33 124.33,-124.33l746.63 0 107.19 0c62.14,0 112.97,-50.82 112.97,-112.97l0 -0.01c0,-62.14 -50.83,-112.97 -112.97,-112.97l-30.99 0 -939.39 0 -43.58 0c-68.39,0 -124.32,-55.96 -124.32,-124.32 0,-68.37 55.93,-124.31 124.32,-124.31l1068.39 0c-53.92,-36.92 -96.57,-90.37 -125.66,-165.06 -153.27,-393.36 -165.75,-1048.97 -282.41,-1560.47 -186.76,-818.81 -916.02,-905.71 -1122.49,-43.36 -123.5,515.79 -123.6,1207.48 -257.13,1590.98 -170.7,490.3 -1039.92,-4.82 -1703.9,-49.79 -601.06,-40.72 -732.58,273.74 -304.08,685.83z"/>
   <path class="fil2" d="M1159.88 6025.82c115.4,55.34 367.41,-159.57 631.29,-441.54 362.43,-387.26 618.96,-888.22 831.53,-1015.16 13.06,-394.6 247.39,-686.27 417.95,-814.99l-301.08 -111.6 -1579.68 2383.29z"/>
   <path class="fil3" d="M1010.48 5956.34l1540.41 -2433.18 -2167.95 -949.62c137.26,459.26 1567.79,833.64 1566.94,1227.48 -0.59,278.35 -1129.86,1683.81 -939.4,2155.32z"/>
   <path class="fil4" d="M3134.62 2156.56l512.67 2.63 -205.29 -1168.51c-56.9,-265 -46.34,-537.76 -293.81,-685.53l-13.57 1851.41z"/>
   <path class="fil5" d="M554.19 2461.7l2102.8 823.35 256.96 -2970.97c-384.18,161.27 -330.42,1750.95 -548.33,2148.13 -211.28,385.12 -1392.02,-121.96 -1769.41,-98.83 -151.34,9.27 -215.04,28.48 -42.01,98.32z"/>
   <path class="fil5" d="M1532.72 971.79c283.97,0 514.18,230.21 514.18,514.19 0,283.98 -230.21,514.18 -514.18,514.18 -283.98,0 -514.18,-230.2 -514.18,-514.18 0,-283.98 230.2,-514.19 514.18,-514.19z"/>
  </g>
 </g>
</svg>
